HIERARCHY
ROOT Hips
{
	OFFSET 0.000000 0.000000 0.000000
	CHANNELS 6 Xposition Yposition Zposition Zrotation Yrotation Xrotation 
	JOINT LHipJoint
	{
		OFFSET 0.000000 0.000000 0.000000
		CHANNELS 3 Zrotation Yrotation Xrotation
		JOINT LeftUpLeg
		{
			OFFSET 1.363060 -1.794630 0.839290
			CHANNELS 3 Zrotation Yrotation Xrotation
			JOINT LeftLeg
			{
				OFFSET 2.448110 -6.726130 0.000000
				CHANNELS 3 Zrotation Yrotation Xrotation
				JOINT LeftFoot
				{
					OFFSET 2.562200 -7.039590 0.000000
					CHANNELS 3 Zrotation Yrotation Xrotation
					JOINT LeftToeBase
					{
						OFFSET 0.157640 -0.433110 2.322550
						CHANNELS 3 Zrotation Yrotation Xrotation
						End Site
						{
							OFFSET 0.000000 0.000000 0.000000
						}
					}
				}
			}
		}
	}
	JOINT RHipJoint
	{
		OFFSET 0.000000 0.000000 0.000000
		CHANNELS 3 Zrotation Yrotation Xrotation
		JOINT RightUpLeg
		{
			OFFSET -1.305520 -1.794630 0.839290
			CHANNELS 3 Zrotation Yrotation Xrotation
			JOINT RightLeg
			{
				OFFSET -2.542530 -6.985550 0.000000
				CHANNELS 3 Zrotation Yrotation Xrotation
				JOINT RightFoot
				{
					OFFSET -2.568260 -7.056230 0.000000
					CHANNELS 3 Zrotation Yrotation Xrotation
					JOINT RightToeBase
					{
						OFFSET -0.164730 -0.452590 2.363150
						CHANNELS 3 Zrotation Yrotation Xrotation
						End Site
						{
							OFFSET 0.000000 0.000000 0.000000
						}
					}
				}
			}
		}
	}
}
MOTION
Frames: 17
Frame Time: 0.008333
27.276810 16.748859 4.611907 -137.771294 -88.189358 155.327251 -11.410853 3.321279 -0.273201 -3.948619 7.670215 1.329222 -1.344900 0.123552 13.280671 1.065676 7.413531 -2.839568 0.552899 0.000000 -70.299200 8.131194 -0.750184 4.534027 8.159692 6.738232 -41.404883 2.858722 0.305585 8.104852 -0.637748 -4.858463 8.257244 -2.454200 0.000000 -36.913100
27.127623 16.775398 4.576145 -130.148294 -88.022901 147.590555 -11.566838 3.316162 -0.297020 -3.282250 7.611366 0.980503 -1.157098 0.302030 14.910503 1.083803 7.706970 -1.347279 0.775601 -0.000000 -72.790700 7.962998 -0.895998 4.529771 8.592632 7.211009 -40.879888 2.847132 0.230772 8.654743 -0.670874 -5.032335 8.251805 -2.502600 -0.000000 -36.149100
26.979501 16.803756 4.538281 -125.162273 -87.808256 142.480863 -11.719847 3.311391 -0.328884 -2.647252 7.602037 0.514493 -0.965924 0.488041 16.719702 1.108458 7.975606 0.280962 1.016200 0.000001 -74.867100 7.810045 -1.021329 4.520190 9.016874 7.671089 -40.316622 2.844328 0.166222 9.190883 -0.698092 -5.142060 8.069900 -2.512500 -0.000000 -35.314600
26.832828 16.833486 4.498446 -121.693024 -87.579749 138.878838 -11.863848 3.302706 -0.367188 -2.041195 7.634070 -0.069179 -0.770487 0.676312 18.702117 1.142789 8.219731 2.030667 1.269500 -0.000000 -76.348100 7.674331 -1.128569 4.504091 9.437311 8.096123 -39.696937 2.850226 0.114887 9.675123 -0.721780 -5.205233 7.732907 -2.491099 -0.000000 -34.419200
26.687844 16.864180 4.457268 -118.880439 -87.351338 135.920526 -12.002108 3.283239 -0.411513 -1.450104 7.704408 -0.765386 -0.571096 0.861484 20.847017 1.189624 8.439704 3.868409 1.527900 -0.000001 -77.069400 7.549857 -1.223119 4.479694 9.869124 8.473774 -38.995079 2.866347 0.080867 10.060648 -0.745160 -5.248765 7.278696 -2.451200 0.000000 -33.481000
26.544404 16.895388 4.414189 -116.619897 -87.149422 133.515185 -12.123976 3.254005 -0.449993 -0.917891 7.767723 -1.576624 -0.372417 1.037080 23.129190 1.255216 8.679245 5.743888 1.792899 -0.000000 -76.867500 7.446442 -1.302635 4.448265 10.289634 8.772619 -38.235428 2.890002 0.064187 10.339143 -0.766894 -5.267935 6.734942 -2.393900 0.000000 -32.538200
26.402767 16.926754 4.369740 -114.565578 -86.980250 131.317177 -12.230432 3.210946 -0.480220 -0.447387 7.811617 -2.495688 -0.178925 1.198737 25.527293 1.340834 8.958912 7.586315 2.063200 0.000000 -75.645499 7.361316 -1.370581 4.409182 10.703184 8.981334 -37.415913 2.921475 0.066176 10.487521 -0.787409 -5.273633 6.142295 -2.327100 -0.000000 -31.626300
26.262781 16.957923 4.324720 -112.436885 -86.840223 129.047718 -12.325958 3.149915 -0.502284 -0.029159 7.834081 -3.512409 0.004637 1.344047 28.019229 1.444697 9.293799 9.312526 2.337801 -0.000000 -73.385500 7.287801 -1.432440 4.363201 11.120589 9.100124 -36.531139 2.961706 0.088072 10.484132 -0.807381 -5.279265 5.542356 -2.259600 -0.000000 -30.774299
26.124699 16.988617 4.279159 -110.277512 -86.737900 126.754885 -12.406490 3.072744 -0.512976 0.313167 7.818517 -4.622105 0.172448 1.472702 30.577924 1.564479 9.716493 10.839197 2.622800 -0.000000 -70.159300 7.229447 -1.488171 4.311298 11.527015 9.118622 -35.606332 3.008216 0.127194 10.342501 -0.824133 -5.273899 4.960000 -2.190599 0.000000 -30.016900
25.988302 17.018590 4.233637 -108.018174 -86.667039 124.370842 -12.474854 2.979383 -0.514879 0.584185 7.769078 -5.814495 0.321545 1.587109 33.176828 1.695144 10.240519 12.093568 2.919900 -0.000000 -66.162200 7.182220 -1.540598 4.254595 11.923785 9.045400 -34.650095 3.060337 0.181966 10.067980 -0.836695 -5.257834 4.419085 -2.123100 -0.000000 -29.370300
25.853844 17.047717 4.188746 -105.634751 -86.618063 121.868494 -12.535469 2.870255 -0.511238 0.793664 7.693335 -7.076505 0.451746 1.691009 35.787317 1.831672 10.871745 13.026274 3.228100 0.000000 -61.699200 7.140498 -1.592619 4.194873 12.313657 8.897689 -33.668125 3.117215 0.250311 9.672111 -0.844836 -5.233877 3.935686 -2.060001 0.000000 -28.834600
25.721381 17.075869 4.144521 -103.250533 -86.588544 119.374817 -12.586810 2.749114 -0.503804 0.934598 7.590654 -8.398424 0.563874 1.788442 38.378816 1.970635 11.615608 13.614520 3.545400 0.000000 -57.105100 7.105943 -1.642788 4.133330 12.684699 8.688919 -32.680794 3.176088 0.328385 9.184760 -0.847085 -5.192953 3.510033 -1.998900 0.000000 -28.406800
25.590736 17.103043 4.101165 -100.961567 -86.572180 116.986434 -12.629532 2.618417 -0.495430 1.010504 7.465012 -9.766949 0.660503 1.882933 40.922566 2.109166 12.460913 13.856946 3.862100 -0.000000 -52.677701 7.077521 -1.690515 4.071366 13.031652 8.441090 -31.698515 3.234856 0.413024 8.631435 -0.843584 -5.133986 3.137737 -1.939400 -0.000000 -28.066500
25.462258 17.129250 4.058798 -98.863974 -86.562391 114.796987 -12.664490 2.479915 -0.488188 1.028575 7.319239 -11.167033 0.745124 1.976716 43.390690 2.245906 13.389199 13.778227 4.165500 0.000001 -48.722201 7.053708 -1.735134 4.010860 13.350974 8.179774 -30.726062 3.291473 0.501558 8.034753 -0.835743 -5.061499 2.809843 -1.881600 0.000000 -27.784800
25.335712 17.154541 4.017162 -97.109567 -86.560312 112.959921 -12.687759 2.337301 -0.484200 0.984517 7.155161 -12.588092 0.819335 2.071381 45.761206 2.378507 14.368134 13.393800 4.434100 -0.000000 -45.251399 7.038753 -1.773474 3.952311 13.630625 7.921711 -29.775144 3.342963 0.590474 7.425080 -0.824102 -4.972039 2.508841 -1.822700 -0.000000 -27.536800
25.211641 17.178969 3.976170 -95.767229 -86.562635 111.540936 -12.698839 2.191788 -0.484271 0.886517 6.973709 -14.015458 0.885808 2.166537 48.007849 2.506470 15.367043 12.755761 4.652900 -0.000001 -42.469100 7.032390 -1.804514 3.897031 13.869097 7.688069 -28.843817 3.387667 0.678223 6.816322 -0.811071 -4.874420 2.222007 -1.763400 -0.000000 -27.290100
25.089479 17.202601 3.935486 -94.930731 -86.572394 110.634307 -12.693692 2.046870 -0.489918 0.732841 6.778448 -15.438765 0.944508 2.261968 50.112735 2.626459 16.340446 11.881789 4.796800 0.000000 -40.148500 7.039053 -1.825824 3.844422 14.059172 7.486676 -27.934806 3.423640 0.762724 6.226065 -0.797440 -4.767679 1.934087 -1.701800 -0.000000 -27.022600
